<mxfile host="65bd71144e">
    <diagram id="C5RBs43oDa-KdzZeNtuy" name="Page-1">
        <mxGraphModel dx="970" dy="512" grid="1" gridSize="10" guides="1" tooltips="1" connect="1" arrows="1" fold="1" page="1" pageScale="1" pageWidth="827" pageHeight="1169" math="0" shadow="0">
            <root>
                <mxCell id="WIyWlLk6GJQsqaUBKTNV-0"/>
                <mxCell id="WIyWlLk6GJQsqaUBKTNV-1" parent="WIyWlLk6GJQsqaUBKTNV-0"/>
                <mxCell id="0ihfBW9BSxUDxpJlNyRV-0" value="Dataset" style="shape=document;whiteSpace=wrap;html=1;boundedLbl=1;dashed=0;flipH=1;rounded=0;" parent="WIyWlLk6GJQsqaUBKTNV-1" vertex="1">
                    <mxGeometry x="50" y="310" width="100" height="70" as="geometry"/>
                </mxCell>
                <mxCell id="0ihfBW9BSxUDxpJlNyRV-1" value="Dataset" style="shape=document;whiteSpace=wrap;html=1;boundedLbl=1;dashed=0;flipH=1;rounded=0;" parent="WIyWlLk6GJQsqaUBKTNV-1" vertex="1">
                    <mxGeometry x="60" y="320" width="100" height="70" as="geometry"/>
                </mxCell>
                <mxCell id="0ihfBW9BSxUDxpJlNyRV-4" style="edgeStyle=orthogonalEdgeStyle;orthogonalLoop=1;jettySize=auto;html=1;entryX=0;entryY=0.5;entryDx=0;entryDy=0;" parent="WIyWlLk6GJQsqaUBKTNV-1" source="0ihfBW9BSxUDxpJlNyRV-2" target="0ihfBW9BSxUDxpJlNyRV-3" edge="1">
                    <mxGeometry relative="1" as="geometry"/>
                </mxCell>
                <mxCell id="0ihfBW9BSxUDxpJlNyRV-2" value="Dataset" style="shape=document;whiteSpace=wrap;html=1;boundedLbl=1;dashed=0;flipH=1;rounded=0;" parent="WIyWlLk6GJQsqaUBKTNV-1" vertex="1">
                    <mxGeometry x="70" y="330" width="100" height="70" as="geometry"/>
                </mxCell>
                <mxCell id="0ihfBW9BSxUDxpJlNyRV-14" style="edgeStyle=orthogonalEdgeStyle;orthogonalLoop=1;jettySize=auto;html=1;entryX=0.5;entryY=0;entryDx=0;entryDy=0;" parent="WIyWlLk6GJQsqaUBKTNV-1" source="0ihfBW9BSxUDxpJlNyRV-3" target="0ihfBW9BSxUDxpJlNyRV-13" edge="1">
                    <mxGeometry relative="1" as="geometry"/>
                </mxCell>
                <mxCell id="0ihfBW9BSxUDxpJlNyRV-3" value="" style="rounded=1;whiteSpace=wrap;html=1;" parent="WIyWlLk6GJQsqaUBKTNV-1" vertex="1">
                    <mxGeometry x="210" y="280" width="760" height="170" as="geometry"/>
                </mxCell>
                <mxCell id="0ihfBW9BSxUDxpJlNyRV-9" style="edgeStyle=orthogonalEdgeStyle;orthogonalLoop=1;jettySize=auto;html=1;" parent="WIyWlLk6GJQsqaUBKTNV-1" source="0ihfBW9BSxUDxpJlNyRV-5" target="0ihfBW9BSxUDxpJlNyRV-6" edge="1">
                    <mxGeometry relative="1" as="geometry"/>
                </mxCell>
                <mxCell id="0ihfBW9BSxUDxpJlNyRV-5" value="Cleaning" style="rounded=1;whiteSpace=wrap;html=1;" parent="WIyWlLk6GJQsqaUBKTNV-1" vertex="1">
                    <mxGeometry x="380" y="335" width="120" height="60" as="geometry"/>
                </mxCell>
                <mxCell id="0ihfBW9BSxUDxpJlNyRV-10" style="edgeStyle=orthogonalEdgeStyle;orthogonalLoop=1;jettySize=auto;html=1;" parent="WIyWlLk6GJQsqaUBKTNV-1" source="0ihfBW9BSxUDxpJlNyRV-6" target="0ihfBW9BSxUDxpJlNyRV-7" edge="1">
                    <mxGeometry relative="1" as="geometry"/>
                </mxCell>
                <mxCell id="0ihfBW9BSxUDxpJlNyRV-6" value="Tokenisation" style="rounded=1;whiteSpace=wrap;html=1;" parent="WIyWlLk6GJQsqaUBKTNV-1" vertex="1">
                    <mxGeometry x="534" y="335" width="120" height="60" as="geometry"/>
                </mxCell>
                <mxCell id="0ihfBW9BSxUDxpJlNyRV-11" style="edgeStyle=orthogonalEdgeStyle;orthogonalLoop=1;jettySize=auto;html=1;" parent="WIyWlLk6GJQsqaUBKTNV-1" source="0ihfBW9BSxUDxpJlNyRV-7" target="0ihfBW9BSxUDxpJlNyRV-8" edge="1">
                    <mxGeometry relative="1" as="geometry"/>
                </mxCell>
                <mxCell id="0ihfBW9BSxUDxpJlNyRV-7" value="POS" style="rounded=1;whiteSpace=wrap;html=1;" parent="WIyWlLk6GJQsqaUBKTNV-1" vertex="1">
                    <mxGeometry x="680" y="335" width="120" height="60" as="geometry"/>
                </mxCell>
                <mxCell id="0ihfBW9BSxUDxpJlNyRV-8" value="Lemmatization" style="rounded=1;whiteSpace=wrap;html=1;" parent="WIyWlLk6GJQsqaUBKTNV-1" vertex="1">
                    <mxGeometry x="830" y="335" width="120" height="60" as="geometry"/>
                </mxCell>
                <mxCell id="0ihfBW9BSxUDxpJlNyRV-12" value="Preprocessing" style="text;html=1;strokeColor=none;fillColor=none;align=center;verticalAlign=middle;whiteSpace=wrap;rounded=0;" parent="WIyWlLk6GJQsqaUBKTNV-1" vertex="1">
                    <mxGeometry x="515" y="290" width="60" height="30" as="geometry"/>
                </mxCell>
                <mxCell id="0ihfBW9BSxUDxpJlNyRV-16" style="edgeStyle=orthogonalEdgeStyle;orthogonalLoop=1;jettySize=auto;html=1;" parent="WIyWlLk6GJQsqaUBKTNV-1" source="0ihfBW9BSxUDxpJlNyRV-13" target="0ihfBW9BSxUDxpJlNyRV-15" edge="1">
                    <mxGeometry relative="1" as="geometry"/>
                </mxCell>
                <mxCell id="0ihfBW9BSxUDxpJlNyRV-13" value="Processing" style="rounded=1;whiteSpace=wrap;html=1;" parent="WIyWlLk6GJQsqaUBKTNV-1" vertex="1">
                    <mxGeometry x="530" y="490" width="120" height="60" as="geometry"/>
                </mxCell>
                <mxCell id="0ihfBW9BSxUDxpJlNyRV-15" value="Model&lt;br&gt;(age rating classification)" style="rounded=1;whiteSpace=wrap;html=1;" parent="WIyWlLk6GJQsqaUBKTNV-1" vertex="1">
                    <mxGeometry x="695" y="490" width="120" height="60" as="geometry"/>
                </mxCell>
                <mxCell id="1" style="edgeStyle=none;html=1;" edge="1" parent="WIyWlLk6GJQsqaUBKTNV-1" source="0" target="0ihfBW9BSxUDxpJlNyRV-5">
                    <mxGeometry relative="1" as="geometry"/>
                </mxCell>
                <mxCell id="3" style="edgeStyle=none;html=1;dashed=1;endArrow=none;endFill=0;" edge="1" parent="WIyWlLk6GJQsqaUBKTNV-1" source="0" target="2">
                    <mxGeometry relative="1" as="geometry"/>
                </mxCell>
                <mxCell id="0" value="Document splitting" style="rounded=1;whiteSpace=wrap;html=1;" vertex="1" parent="WIyWlLk6GJQsqaUBKTNV-1">
                    <mxGeometry x="230" y="335" width="120" height="60" as="geometry"/>
                </mxCell>
                <mxCell id="2" value="Split whole movie scripts into uable documents" style="shape=note;whiteSpace=wrap;html=1;backgroundOutline=1;darkOpacity=0.05;" vertex="1" parent="WIyWlLk6GJQsqaUBKTNV-1">
                    <mxGeometry x="235" y="140" width="110" height="100" as="geometry"/>
                </mxCell>
                <mxCell id="5" style="edgeStyle=none;html=1;entryX=0.5;entryY=0;entryDx=0;entryDy=0;dashed=1;endArrow=none;endFill=0;" edge="1" parent="WIyWlLk6GJQsqaUBKTNV-1" source="4" target="0ihfBW9BSxUDxpJlNyRV-3">
                    <mxGeometry relative="1" as="geometry"/>
                </mxCell>
                <mxCell id="4" value="Probably use spacy for the preprocessing and integrate it into elastic search runtime" style="shape=note;whiteSpace=wrap;html=1;backgroundOutline=1;darkOpacity=0.05;" vertex="1" parent="WIyWlLk6GJQsqaUBKTNV-1">
                    <mxGeometry x="507" y="130" width="166" height="110" as="geometry"/>
                </mxCell>
            </root>
        </mxGraphModel>
    </diagram>
</mxfile>